# xmcd
#
# Track frame offsets:
#	150
#	14980
#	29627
#	44527
#	70295
#	85855
#	102627
#	123825
#	148270
#	160430
#	176922
#	193980
#
# Disc length: 2791 seconds
#
# Revision: 0
# Processed by: cddbd v1.4PL0 Copyright (c) Steve Scherf et al.
# Submitted via: dBpowerAMP V4.0
#
DISCID=c00ae50c
DTITLE=Blues Power - Blues Power
DYEAR=1990
DGENRE=Blues
TTITLE0=My baby, my gal
TTITLE1=Rock and roll blues
TTITLE2=Standing in the darkness
TTITLE3=I'm gonna leave you
TTITLE4=Please don't go
TTITLE5=slide it up
TTITLE6=I smell trouble
TTITLE7=One of the joe's
TTITLE8=You're gonna miss me
TTITLE9=Dust my broom
TTITLE10=Hard life in Mexico
TTITLE11=Peaches
EXTD=
EXTT0=
EXTT1=
EXTT2=
EXTT3=
EXTT4=
EXTT5=
EXTT6=
EXTT7=
EXTT8=
EXTT9=
EXTT10=
EXTT11=
PLAYORDER=
